<?xml version="1.0" encoding="iso-8859-1"?>
<!-- Generator: Adobe Illustrator 19.0.0, SVG Export Plug-In . SVG Version: 6.00 Build 0)  -->
<svg version="1.1" id="Layer_1" xmlns="http://www.w3.org/2000/svg" xmlns:xlink="http://www.w3.org/1999/xlink" x="0px" y="0px"
	 viewBox="0 0 512 512" style="enable-background:new 0 0 512 512;" xml:space="preserve">
<path style="fill:#0B3CA0;" d="M82.722,191.216c-39.819,0-72.099,32.279-72.099,72.098l-0.174,5.223v170.353
	c0,34.605,28.054,62.66,62.66,62.66h365.781c34.606,0,62.66-28.056,62.66-62.66V253.877c0-34.605-28.054-62.66-62.66-62.66H82.722z"
	/>
<circle style="fill:#1D66DB;" cx="327.053" cy="346.384" r="120.163"/>
<circle style="fill:#5AB8FF;" cx="327.053" cy="346.384" r="72.098"/>
<g>
	<rect x="291.568" y="149.42" style="fill:#1D66DB;" width="60.625" height="41.796"/>
	<rect x="272.771" y="98.314" style="fill:#1D66DB;" width="98.22" height="51.105"/>
</g>
<path style="fill:#5AB8FF;" d="M388.757,79.317c0,10.493-8.523,18.998-19.039,18.998h-95.67c-10.515,0-19.039-8.505-19.039-18.998
	V29.448c0-10.493,8.523-18.999,19.039-18.999h95.67c10.516,0,19.039,8.507,19.039,18.999V79.317z"/>
<path d="M327.053,215.771c-72.02,0-130.612,58.593-130.612,130.612s58.593,130.612,130.612,130.612s130.612-58.593,130.612-130.612
	S399.073,215.771,327.053,215.771z M327.053,456.098c-60.497,0-109.714-49.218-109.714-109.714s49.217-109.714,109.714-109.714
	s109.714,49.218,109.714,109.714S387.549,456.098,327.053,456.098z"/>
<path d="M327.053,263.837c-45.516,0-82.547,37.031-82.547,82.547s37.031,82.547,82.547,82.547s82.547-37.031,82.547-82.547
	S372.569,263.837,327.053,263.837z M327.053,408.033c-33.993,0-61.649-27.656-61.649-61.649s27.656-61.649,61.649-61.649
	s61.649,27.656,61.649,61.649S361.046,408.033,327.053,408.033z"/>
<path d="M327.053,306.033c-5.77,0-10.449,4.679-10.449,10.449s4.679,10.449,10.449,10.449c10.727,0,19.453,8.727,19.453,19.453
	c0,5.77,4.679,10.449,10.449,10.449s10.449-4.679,10.449-10.449C367.404,324.134,349.303,306.033,327.053,306.033z"/>
<path d="M327.053,365.837c-10.727,0-19.453-8.727-19.453-19.453c0-5.77-4.679-10.449-10.449-10.449
	c-5.77,0-10.449,4.679-10.449,10.449c0,22.25,18.101,40.351,40.351,40.351c5.77,0,10.449-4.679,10.449-10.449
	C337.502,370.516,332.823,365.837,327.053,365.837z"/>
<path d="M282.178,76.299h79.412c5.77,0,10.449-4.679,10.449-10.449s-4.679-10.449-10.449-10.449h-79.412
	c-5.77,0-10.449,4.679-10.449,10.449C271.729,71.62,276.407,76.299,282.178,76.299z"/>
<path d="M282.178,50.155h79.412c5.77,0,10.449-4.679,10.449-10.449s-4.679-10.449-10.449-10.449h-79.412
	c-5.77,0-10.449,4.679-10.449,10.449S276.407,50.155,282.178,50.155z"/>
<path d="M438.891,180.767h-76.245v-20.898h8.348c5.77,0,10.449-4.678,10.449-10.449v-43.089
	c10.441-4.538,17.763-14.936,17.763-27.014V29.448C399.205,13.211,385.977,0,369.717,0h-95.67c-16.26,0-29.488,13.211-29.488,29.448
	v49.87c0,12.078,7.323,22.476,17.763,27.014v43.088c0,5.771,4.679,10.449,10.449,10.449h8.349v20.898H82.722
	c-45.456,0-82.449,36.934-82.548,82.366l-0.168,5.055C0.002,268.305,0,268.422,0,268.538v170.353C0,479.203,32.797,512,73.109,512
	h365.781C479.203,512,512,479.203,512,438.891V253.877C512,213.565,479.203,180.767,438.891,180.767z M283.223,138.971v-30.207
	h77.322v30.207h-8.348h-60.626H283.223z M265.459,29.448c0-4.715,3.854-8.55,8.59-8.55h95.67c4.737,0,8.59,3.836,8.59,8.55v49.87
	c0,4.715-3.854,8.549-8.59,8.549h-95.67c-4.737,0-8.59-3.835-8.59-8.549V29.448z M302.02,159.869h39.728v20.898H302.02V159.869z
	 M73.109,491.102c-28.79,0-52.211-23.421-52.211-52.211V268.712l0.168-5.049c0.004-0.116,0.006-0.233,0.006-0.349
	c0-31.868,24.307-58.167,55.357-61.33c2.069-0.21,4.169-0.319,6.293-0.319h9.438c28.79,0,52.211,23.421,52.211,52.211v185.014
	c0,28.79-23.421,52.211-52.211,52.211L73.109,491.102L73.109,491.102z M491.102,438.891c0,28.79-23.421,52.211-52.211,52.211
	H143.266c13.564-13.28,22.003-31.774,22.003-52.211V253.877c0-20.437-8.439-38.932-22.003-52.211h295.625
	c28.79,0,52.211,23.421,52.211,52.211V438.891z"/>
<path d="M55.38,273.115c-5.77,0-10.449,4.678-10.449,10.449v4.678c0,5.77,4.679,10.449,10.449,10.449s10.449-4.679,10.449-10.449
	v-4.678C65.829,277.793,61.15,273.115,55.38,273.115z"/>
<path d="M55.38,311.597c-5.77,0-10.449,4.678-10.449,10.449v87.157c0,5.771,4.679,10.449,10.449,10.449s10.449-4.678,10.449-10.449
	v-87.157C65.829,316.275,61.15,311.597,55.38,311.597z"/>
<g>
</g>
<g>
</g>
<g>
</g>
<g>
</g>
<g>
</g>
<g>
</g>
<g>
</g>
<g>
</g>
<g>
</g>
<g>
</g>
<g>
</g>
<g>
</g>
<g>
</g>
<g>
</g>
<g>
</g>
</svg>
